<svg width="160" height="45" viewBox="0 0 160 45" fill="none" xmlns="http://www.w3.org/2000/svg">
  <defs>
    <linearGradient id="brandGradient" x1="0%" y1="0%" x2="100%" y2="100%">
      <stop offset="0%" stop-color="#22C55E"/>
      <stop offset="50%" stop-color="#10B981"/>
      <stop offset="100%" stop-color="#06B6D4"/>
    </linearGradient>
  </defs>
  
  <!-- M Icon with checkmark -->
  <g>
    <path d="M5 35V10L15 25L25 10V35" stroke="url(#brandGradient)" stroke-width="5" stroke-linecap="round" stroke-linejoin="round" fill="none"/>
    <path d="M9 21L13 26L21 16" stroke="url(#brandGradient)" stroke-width="2" stroke-linecap="round" stroke-linejoin="round" fill="none"/>
  </g>
  
  <!-- MEDIAI Text as shapes -->
  <!-- e -->
  <ellipse cx="42" cy="26" rx="6" ry="7" stroke="#0D9488" stroke-width="3" fill="none"/>
  <line x1="36" y1="26" x2="48" y2="26" stroke="#0D9488" stroke-width="2"/>
  
  <!-- d -->
  <ellipse cx="58" cy="26" rx="5" ry="6" stroke="#0D9488" stroke-width="3" fill="none"/>
  <line x1="63" y1="12" x2="63" y2="33" stroke="#0D9488" stroke-width="3" stroke-linecap="round"/>
  
  <!-- i -->
  <circle cx="74" cy="14" r="2" fill="#0D9488"/>
  <line x1="74" y1="20" x2="74" y2="33" stroke="#0D9488" stroke-width="3" stroke-linecap="round"/>
  
  <!-- a -->
  <ellipse cx="86" cy="26" rx="5" ry="6" stroke="#0D9488" stroke-width="3" fill="none"/>
  <path d="M91 20v13" stroke="#0D9488" stroke-width="3" stroke-linecap="round"/>
  
  <!-- i -->
  <circle cx="102" cy="14" r="2" fill="#22D3EE"/>
  <line x1="102" y1="20" x2="102" y2="33" stroke="#0D9488" stroke-width="3" stroke-linecap="round"/>
  
  <!-- Decorative elements -->
  <circle cx="118" cy="12" r="4" fill="#22D3EE" opacity="0.8"/>
  <circle cx="130" cy="20" r="3" fill="#10B981" opacity="0.6"/>
</svg>
